<svg xmlns="http://www.w3.org/2000/svg" width="19" height="20" viewBox="0 0 19 20">
  <path id="Path_846" data-name="Path 846" d="M128.616,2a2.65,2.65,0,0,1,1.882.779,2.492,2.492,0,0,1,.74,1.8l.009.148a1.02,1.02,0,0,0,.144.415,1.13,1.13,0,0,0,.695.515,1.186,1.186,0,0,0,.9-.137l.164-.083a2.651,2.651,0,0,1,3.387,1.044l.614,1.042a.7.7,0,0,1,.042.085l.057.112a2.536,2.536,0,0,1-.884,3.2l-.257.158a1.116,1.116,0,0,0-.447,1.2,1.141,1.141,0,0,0,.559.695l.167.1a2.56,2.56,0,0,1,1.028,1.439,2.523,2.523,0,0,1-.272,1.957l-.66,1.077-.1.152a2.646,2.646,0,0,1-3.428.776l-.136-.069a1.193,1.193,0,0,0-.435-.1,1.148,1.148,0,0,0-.809.326,1.125,1.125,0,0,0-.334.828l-.008.172A2.6,2.6,0,0,1,128.616,22h-1.235a2.587,2.587,0,0,1-2.622-2.525l-.008-.148a1.061,1.061,0,0,0-.148-.422,1.127,1.127,0,0,0-.688-.519,1.183,1.183,0,0,0-.9.134l-.178.087a2.675,2.675,0,0,1-1.794.128,2.606,2.606,0,0,1-1.57-1.214l-.637-1.078-.085-.16a2.528,2.528,0,0,1,1.029-3.3l.105-.065A1.115,1.115,0,0,0,120.38,12a1.135,1.135,0,0,0-.6-.988l-.155-.1a2.542,2.542,0,0,1-.764-3.407l.649-1.045a2.646,2.646,0,0,1,3.553-.96l.134.07a1.07,1.07,0,0,0,.425.095,1.139,1.139,0,0,0,1.146-1.124l.009-.194a2.537,2.537,0,0,1,.752-1.593A2.642,2.642,0,0,1,127.381,2Zm0,1.448h-1.235a1.151,1.151,0,0,0-.806.328,1.1,1.1,0,0,0-.325.661l-.013.3a2.6,2.6,0,0,1-3.693,2.129l-.192-.1a1.162,1.162,0,0,0-1.571.428l-.65,1.045a1.1,1.1,0,0,0,.312,1.465l.261.162a2.54,2.54,0,0,1,0,4.259l-.156.1a1.1,1.1,0,0,0-.472,1.413l.056.107.63,1.063a1.138,1.138,0,0,0,.688.536,1.154,1.154,0,0,0,.754-.042l.109-.052a2.651,2.651,0,0,1,1.986-.261,2.589,2.589,0,0,1,1.582,1.188,2.485,2.485,0,0,1,.343,1.022l.02.354a1.137,1.137,0,0,0,1.139,1h1.235a1.131,1.131,0,0,0,1.14-1l.006-.109a2.535,2.535,0,0,1,.766-1.824,2.649,2.649,0,0,1,1.877-.75,2.741,2.741,0,0,1,1.048.241l.316.158a1.152,1.152,0,0,0,1.382-.361l.073-.111.644-1.052a1.1,1.1,0,0,0-.3-1.455l-.273-.169a2.566,2.566,0,0,1-1.062-1.462,2.513,2.513,0,0,1,.265-1.945,2.577,2.577,0,0,1,.792-.837l.161-.1a1.105,1.105,0,0,0,.473-1.417l-.071-.134-.012-.028-.585-1a1.158,1.158,0,0,0-1.341-.513l-.111.044-.1.052a2.661,2.661,0,0,1-1.984.272,2.606,2.606,0,0,1-1.6-1.18,2.483,2.483,0,0,1-.342-1.022l-.014-.252a1.108,1.108,0,0,0-.323-.815A1.16,1.16,0,0,0,128.616,3.448ZM128,8.732A3.269,3.269,0,1,1,124.667,12,3.3,3.3,0,0,1,128,8.732Zm0,1.448A1.821,1.821,0,1,0,129.861,12,1.84,1.84,0,0,0,128,10.18Z" transform="translate(-118.5 -2)" fill="#3b5162"/>
</svg>
